/* XPM */
static char * index_xpm[] = {
"64 64 2 1",
"b	c #FFFFFF",
"o	c #000000",
"bbbbbbbbbbbbbbbbbbbboobboobboobboobboobboobbbbbbbbbbbbbbbbbbbbbb",
"bbbbbbbbbbbbbbbbbobbbbbbbbbbbbbbbbbbbbbbbbbbobbbbbbbbbbbbbbbbbbb",
"bbbbbbbbbbbbbbbbbbbbbbbbbbbbbbbbbbbbbbbbbbbbbbbbbbbbbbbbbbbbbbbb",
"bbbbbbbbbbbbbbbbbbbbbbbbbbbbbbbbbbbbbbbbbbbbbbbbbbbbbbbbbbbbbbbb",
"bbbbbbbbbbbbbbbbbobbbbbbbbbbbbbbbbbbbbbbbbbbobbbbbbbbbbbbbbbbbbb",
"bbbbbbbbbbbbboboboobbbbbbbbbbobbobbbbbbbbbboobobobbbbbbbbbbbbbbb",
"bbbbbbbbbbbbbbbboobbbbbbbbbbbbbbbbbbbbbbbbbboobbbbbbbbbbbbbbbbbb",
"bbbbbbbbbbbbbbbobbobbbbbbbbobbbbbbobbbbbbbbobbobbbbbbbbbbbbbbbbb",
"bbbbbbbbbbbbobbbobbbbbbbbbbboobboobbbbbbbbbbbobbbobbbbbbbbbbbbbb",
"bbbbbbbbbbbobbbboobbobobbbbobbbbbbobbobooboboobbbbobbbbbbbbbbbbb",
"bbbbbbbbbbbbbobbbbbbobbbobbbbbbbbboobbbbbobobbbbobbbbbbbbbbbbbbb",
"bbbbbbbbbobobbboobobbbboooboboooobbbobobbbobboobbbobobbbbbbbbbbb",
"bbbbbbbbobbbboobobbbbbbobbbobbbbboobbbobbbbbboboobbbbobbbbbbbbbb",
"bbbbbobbbbobobbbbbooboobboooobbbooobbobooboobbbbbobobbbbobbbbbbb",
"bbbbbbbbbbbbobobbboboobboobbbbbooobbbboobobbbbbobobbbbbbbbbbbbbb",
"bbbbbobobbbobbbbbbobboobbboboobobobobooboobbbbbbbbobbbobobbbbbbb",
"bbbbbbobooboobbbbobbooooboooobbbboooooooooooobbbbooboobobbbbbbbb",
"bobbooobbobbbbboooobobbbbobbboboobbbbbbbbbboooobbbbbobbooobbobbb",
"bbbbbobobbbobobbbbbbobooobboobbobbobbbobbobooobbooobbbobobbbbbbb",
"bbbbbbbbbbbbboobbbbbbooboobbboobbbbbbobboobobbbbobbbbbbbbbbbbbbb",
"obbbbbbbbooboobobobbbboboobbbbbbooboboobbobbboooooboobbbbbbbbobb",
"obbbbbbbbbbbbbobbbbbobobobbbbbbbbobboobbbbboboobbobbbbbbbbbbbobb",
"bbbbbbbbbobobbbooboobooboobboboooobbooobbboooobobbobobbbbbbbbbbb",
"bbbbbbbbbbbbbobobboobobbboobooooboobobbbbbobboboobbbbbbbbbbbbbbb",
"bobboobbbbbbooboobbbobobbobobooooobbooooboobbobbbbobbbbbbbbbbobb",
"bbbbbbbbobbobooobbobbbbobboboooobooobobobbbbbbobbobbbbbbbbbbbobb",
"bbbbbbbbboobboooobbbbobbbobooooooooobobobbobbboobobbbbbbbbbbbbbb",
"bbbbbbbbbbbbbbooobbboooboobbobobbbooooboooobbbboobobbbbbbbbbbbbb",
"bbbbbbbbboobbobbbobooobbboboooboobbbooobbobooboooobooobboobbobbb",
"bbbbbbbbbboobooooobbbbbobbbobbbobbobbbooobbbobbbbbbobbbbbbbbbbbb",
"bbbbbbbboboboobbboboobooobooobboobooobooooobbooobbbbbbbbbbbbbbbb",
"bbbbbbbbbboobobobbbbbbooooboboooboooobbboobbbobbobobbbbbbbbbbbbb",
"bbbbbbbbbbbboboobboobooboobbobooooobbbooobobobobbbobbbbbbbbbbbbb",
"bbbbbbbbbbbbooobobbobobbboobobobobbooobbobbbobooobbbbbbbbbbbbbbb",
"bbbbbbbbboboobbobobbbobbobbobboobobooobooboboboboboobbbbbbbbbbbb",
"bbbbbbbbbbbbbbbbbboobbbboboboobbbbbobbobbbbbobbbbobbboobobbbbbbb",
"bbbbbbbbbbbboobobooobobbboobooobbooobobooobbbboobbobbobbbbbbbbbb",
"bbbbbbbbbbbooobbbbbooboooobbboooboboboobbboobobbbbbbbobbbbbbbbbb",
"bbbbbbbbbbbbbbobbbbbbboobobboboboobboboobbbboobobbbbbbobobbbbbbb",
"bbbbbbbbbobobbooobobobobobbboobooooobooooboobobooobooobbbbbbbbbb",
"bbbbbbbbobbbboobobbobbbbbboboobbboooboooboobbbbobbobobbbbbbbbbbb",
"bbbbbobbbbobobbbbbbbooobobobbbbbobbobbooooobbboooobboobbbbbbbbbb",
"bbbbbbbbbbbbobbbbobbobboobboooobobobboooobbbobobbboobbbbbbbbbbbb",
"bbbbbobobbbobboobbbbobbooooobbobbbobbbbbooooooobbbobbbbbbbbbbbbb",
"bbbbooobboobbobboobobbbboobobobooobobbbbobobooobboobbbbbbbbbbbbb",
"bbbbooobboobbobboobbobboobobbbooobbbbooobbooboooooboobbbbbbbbbbb",
"bbbbbobobbbobbbbbbobbboobboobbbbbbooboobbbobbooobooboobbbbbbbbbb",
"bbbbbbbbbbbbobobbbobboooboooboboooobbboooobbooobobbboobbbbbbbbbb",
"bbbbbobbbbobobbbbbooobbbbbbbobobbbbbbbboboobbobbbbbobbbbbbbbbbbb",
"bbbbbbbbobbbboobobbbbbobbbbboobbbbooobbooobobooooboobbbbbbbbbbbb",
"bbbbbbbbbobobbboobbbbbbbobbbboboobbbbbbbbbobobbbbobbbbbbbbbbbbbb",
"bbbbbbbbbbbbbobbbbooobbbobobobbbbobobobobbobbbbbbbbbbbbbbbbbbbbb",
"bbbbbbbbbbbobbbboobbbbobbbbobbbbbbbbbbbbbbbobbbobbobbbbbbbbbbbbb",
"bbbbbbbbbbbbobbbobbboobboobbbbobbbbbbooobbbbbbbbbbbbbbbbbbbbbbbb",
"bbbbbbbbbbbbbbbobbobbbbbbbbbbbbbbbbbobobbbobbbbbbbbbbbbbbbbbbbbb",
"bbbbbbbbbbbbbbbboobbbbbbbbbbbboobbbbbbbbbbbbbbbbbbbbbbbbbbbbbbbb",
"bbbbbbbbbbbbboboboobbbbbbbbbobboboobbbbbobbbbbbbbbbbbbbbbbbbbbbb",
"bbbbbbbbbbbbbbbbbobbbbbbbobbbbbbbbbboobbbbbbbbbbbbbbbbbbbbbbbbbb",
"bbbbbbbbbbbbbbbbbbbbbbbbbbbbbbbbbbbbbbbbbbbbbbbbbbbbbbbbbbbbbbbb",
"bbbbbbbbbbbbbbbbbbbbbbbbbbbbbbbbbbbbbbbbbbbbbbbbbbbbbbbbbbbbbbbb",
"bbbbbbbbbbbbbbbbbobbbbbbobbbbbbbbbbbbbbbbbbbbbbbbbbbbbbbbbbbbbbb",
"bbbbbbbbbbbbbbbbbbbboobbbbbbbbbbbbbbbbbbbbbbbbbbbbbbbbbbbbbbbbbb",
"bbbbbbbbbbbbbbbbbbbbbbbbbbbbbbbbbbbbbbbbbbbbbbbbbbbbbbbbbbbbbbbb",
"bbbbbbbbbbbbbbbbbbbbbbbbbbbbbbbbbbbbbbbbbbbbbbbbbbbbbbbbbbbbbbbb"};
